<svg width="17" height="16" viewBox="0 0 17 16" fill="none" xmlns="http://www.w3.org/2000/svg">
<path d="M10.903 5.60004L4.9863 11.5334C4.85297 11.6667 4.69453 11.7334 4.51097 11.7334C4.32786 11.7334 4.16964 11.6667 4.0363 11.5334C3.90297 11.4 3.8363 11.2416 3.8363 11.058C3.8363 10.8749 3.90297 10.7167 4.0363 10.5834L9.96964 4.66671H4.90297C4.71408 4.66671 4.55564 4.60293 4.42764 4.47537C4.30008 4.34737 4.2363 4.18893 4.2363 4.00004C4.2363 3.81115 4.30008 3.65271 4.42764 3.52471C4.55564 3.39715 4.71408 3.33337 4.90297 3.33337H11.5696C11.7585 3.33337 11.9167 3.39715 12.0443 3.52471C12.1723 3.65271 12.2363 3.81115 12.2363 4.00004V10.6667C12.2363 10.8556 12.1723 11.0138 12.0443 11.1414C11.9167 11.2694 11.7585 11.3334 11.5696 11.3334C11.3807 11.3334 11.2225 11.2694 11.095 11.1414C10.967 11.0138 10.903 10.8556 10.903 10.6667V5.60004Z" fill="black"/>
</svg>
