<svg width="120" height="120" viewBox="0 0 120 120" fill="none" xmlns="http://www.w3.org/2000/svg">
<g filter="url(#filter0_d_1_240)">
<path fill-rule="evenodd" clip-rule="evenodd" d="M64.7671 97.3307C65.0155 100.435 65.2539 103.414 65.2843 105.403C67.7012 106.424 73.4283 109.115 76.6159 112.148C70.8023 112.733 43.8035 112.067 40.6865 111.543C44.6801 109.141 49.2368 106.952 53.6336 105.45C53.5616 101.864 53.7809 98.4846 54.0135 94.8997C54.1973 92.0664 54.3895 89.1047 54.4527 85.8118C54.0129 85.7291 53.2865 85.54 52.5677 85.3528C51.8952 85.1777 51.2291 85.0042 50.8107 84.9214C45.5894 83.8883 41.7849 80.9943 39.0361 77.2359C35.2968 78.8805 30.6282 76.9061 27.5561 74.7938C21.1076 70.3604 12.5269 61.4711 16.7366 52.926C19.2491 47.8262 27.5148 46.2172 32.5841 45.9911C32.8656 43.6152 33.4992 41.3038 34.9736 39.7621C37.6466 36.9668 42.2438 35.7948 45.9202 35.2621C54.0939 34.0777 62.4582 33.9688 70.5717 35.8598C70.7681 35.9052 70.9759 35.9527 71.1941 36.0026C74.8428 36.8366 81.3778 38.3303 85.3832 41.5079C86.2938 42.2956 87.0237 43.1997 87.4901 44.2437C87.9071 45.1774 88.1486 46.9757 88.1572 49.3195C88.8132 49.4983 89.5247 49.6756 90.271 49.8615C95.1504 51.0774 101.513 52.6629 103.52 57.4298C105.426 61.9565 103.01 66.2453 100.362 69.8134C95.4125 76.4836 86.1031 85.0462 76.9995 80.4992C75.3962 82.0097 73.5905 83.2506 71.5645 84.1213C69.5348 84.9935 66.9267 85.7052 64.2024 86.0549C64.0632 88.5352 64.4246 93.051 64.7671 97.3307ZM23.5859 52.321C16.4933 54.8032 21.3222 65.1771 25.3619 68.3748C26.59 69.347 27.896 70.2269 29.2247 71.0536C30.7793 72.021 34.2621 73.3187 36.1541 72.6007C35.2453 70.5383 34.5535 68.2535 33.9034 65.9837C32.5562 61.2804 31.9457 56.0645 31.7548 51.1617C29.0009 51.0407 26.2027 51.4051 23.5859 52.321ZM98.8351 62.7399C95.8109 70.1942 88.7355 77.3607 80.0656 76.508C83.8674 69.8155 87.6509 61.782 88.5403 54.0834C88.7719 54.1331 89.0056 54.179 89.2399 54.2249C89.7971 54.3342 90.357 54.4441 90.8964 54.6082C94.3768 55.6674 100.868 57.7284 98.8351 62.7399Z" fill="#A9A5FD"/>
<path fill-rule="evenodd" clip-rule="evenodd" d="M64.7671 97.3307C65.0155 100.435 65.2539 103.414 65.2843 105.403C67.7012 106.424 73.4283 109.115 76.6159 112.148C70.8023 112.733 43.8035 112.067 40.6865 111.543C44.6801 109.141 49.2368 106.952 53.6336 105.45C53.5616 101.864 53.7809 98.4846 54.0135 94.8997C54.1973 92.0664 54.3895 89.1047 54.4527 85.8118C54.0129 85.7291 53.2865 85.54 52.5677 85.3528C51.8952 85.1777 51.2291 85.0042 50.8107 84.9214C45.5894 83.8883 41.7849 80.9943 39.0361 77.2359C35.2968 78.8805 30.6282 76.9061 27.5561 74.7938C21.1076 70.3604 12.5269 61.4711 16.7366 52.926C19.2491 47.8262 27.5148 46.2172 32.5841 45.9911C32.8656 43.6152 33.4992 41.3038 34.9736 39.7621C37.6466 36.9668 42.2438 35.7948 45.9202 35.2621C54.0939 34.0777 62.4582 33.9688 70.5717 35.8598C70.7681 35.9052 70.9759 35.9527 71.1941 36.0026C74.8428 36.8366 81.3778 38.3303 85.3832 41.5079C86.2938 42.2956 87.0237 43.1997 87.4901 44.2437C87.9071 45.1774 88.1486 46.9757 88.1572 49.3195C88.8132 49.4983 89.5247 49.6756 90.271 49.8615C95.1504 51.0774 101.513 52.6629 103.52 57.4298C105.426 61.9565 103.01 66.2453 100.362 69.8134C95.4125 76.4836 86.1031 85.0462 76.9995 80.4992C75.3962 82.0097 73.5905 83.2506 71.5645 84.1213C69.5348 84.9935 66.9267 85.7052 64.2024 86.0549C64.0632 88.5352 64.4246 93.051 64.7671 97.3307ZM23.5859 52.321C16.4933 54.8032 21.3222 65.1771 25.3619 68.3748C26.59 69.347 27.896 70.2269 29.2247 71.0536C30.7793 72.021 34.2621 73.3187 36.1541 72.6007C35.2453 70.5383 34.5535 68.2535 33.9034 65.9837C32.5562 61.2804 31.9457 56.0645 31.7548 51.1617C29.0009 51.0407 26.2027 51.4051 23.5859 52.321ZM98.8351 62.7399C95.8109 70.1942 88.7355 77.3607 80.0656 76.508C83.8674 69.8155 87.6509 61.782 88.5403 54.0834C88.7719 54.1331 89.0056 54.179 89.2399 54.2249C89.7971 54.3342 90.357 54.4441 90.8964 54.6082C94.3768 55.6674 100.868 57.7284 98.8351 62.7399Z" stroke="black" stroke-width="3" stroke-miterlimit="1.5" stroke-linecap="round" stroke-linejoin="round"/>
</g>
<path d="M71.1636 73.8841C62.763 72.3053 54.3785 72.0317 47.6116 72.9542C44.7991 73.3376 41.8441 73.5558 39.2084 74.7211" stroke="black" stroke-width="3" stroke-miterlimit="1.5" stroke-linecap="round" stroke-linejoin="round"/>
<path d="M79.3015 68.7713C76.8968 68.0308 74.5272 67.2793 72.0533 66.7934C62.2747 64.8726 52.6056 64.6828 42.8143 66.2266" stroke="black" stroke-width="3" stroke-miterlimit="1.5" stroke-linecap="round" stroke-linejoin="round"/>
<path fill-rule="evenodd" clip-rule="evenodd" d="M30.2849 17.1454C30.0006 19.5991 29.6553 22.1459 29.6064 24.6112L30.2849 17.1454Z" fill="#A9A5FD"/>
<path d="M30.2849 17.1454C30.0006 19.5991 29.6553 22.1459 29.6064 24.6112" stroke="black" stroke-width="3" stroke-miterlimit="1.5" stroke-linecap="round" stroke-linejoin="round"/>
<path fill-rule="evenodd" clip-rule="evenodd" d="M23.1085 26.2281C24.5057 26.132 25.9088 26.1525 27.3078 26.1997L23.1085 26.2281Z" fill="#A9A5FD"/>
<path d="M23.1085 26.2281C24.5057 26.132 25.9088 26.1525 27.3078 26.1997" stroke="black" stroke-width="3" stroke-miterlimit="1.5" stroke-linecap="round" stroke-linejoin="round"/>
<path fill-rule="evenodd" clip-rule="evenodd" d="M31.8656 26.1024C33.4643 26.374 35.0093 26.3007 36.6177 26.3266L31.8656 26.1024Z" fill="#A9A5FD"/>
<path d="M31.8656 26.1024C33.4643 26.374 35.0093 26.3007 36.6177 26.3266" stroke="black" stroke-width="3" stroke-miterlimit="1.5" stroke-linecap="round" stroke-linejoin="round"/>
<path fill-rule="evenodd" clip-rule="evenodd" d="M29.4101 34.0029C29.1294 32.4384 28.8467 30.2149 29.2546 28.6298L29.4101 34.0029Z" fill="#A9A5FD"/>
<path d="M29.4101 34.0029C29.1294 32.4384 28.8467 30.2149 29.2546 28.6298" stroke="black" stroke-width="3" stroke-miterlimit="1.5" stroke-linecap="round" stroke-linejoin="round"/>
<path fill-rule="evenodd" clip-rule="evenodd" d="M83.3956 88.0057C83.1513 89.3151 83.0399 90.6445 82.9182 91.9699L83.3956 88.0057Z" fill="#A9A5FD"/>
<path d="M83.3956 88.0057C83.1513 89.3151 83.0399 90.6445 82.9182 91.9699" stroke="black" stroke-width="3" stroke-miterlimit="1.5" stroke-linecap="round" stroke-linejoin="round"/>
<path fill-rule="evenodd" clip-rule="evenodd" d="M78.7071 93.6653C79.3577 93.594 80.0051 93.5232 80.6578 93.4765L78.7071 93.6653Z" fill="#A9A5FD"/>
<path d="M78.7071 93.6653C79.3577 93.594 80.0051 93.5232 80.6578 93.4765" stroke="black" stroke-width="3" stroke-miterlimit="1.5" stroke-linecap="round" stroke-linejoin="round"/>
<path fill-rule="evenodd" clip-rule="evenodd" d="M82.6779 95.3055C82.6023 96.73 82.6429 98.1523 82.5982 99.5765L82.6779 95.3055Z" fill="#A9A5FD"/>
<path d="M82.6779 95.3055C82.6023 96.73 82.6429 98.1523 82.5982 99.5765" stroke="black" stroke-width="3" stroke-miterlimit="1.5" stroke-linecap="round" stroke-linejoin="round"/>
<path fill-rule="evenodd" clip-rule="evenodd" d="M84.3477 94.0313C85.3499 93.9696 86.3575 93.8942 87.3616 93.8866L84.3477 94.0313Z" fill="#A9A5FD"/>
<path d="M84.3477 94.0313C85.3499 93.9696 86.3575 93.8942 87.3616 93.8866" stroke="black" stroke-width="3" stroke-miterlimit="1.5" stroke-linecap="round" stroke-linejoin="round"/>
<path fill-rule="evenodd" clip-rule="evenodd" d="M83.7408 24.878C83.2655 20.9618 83.1829 17.9762 79.405 15.9354C82.7048 15.0427 84.9776 10.8332 85.5148 7.62399C86.1051 10.6862 86.587 14.2626 89.0255 16.4685C85.9346 17.7291 84.1089 21.3013 83.7414 24.472" fill="#A9A5FD"/>
<path d="M83.7408 24.878C83.2655 20.9618 83.1829 17.9762 79.405 15.9354C82.7048 15.0427 84.9776 10.8332 85.5148 7.62399C86.1051 10.6862 86.587 14.2626 89.0255 16.4685C85.9346 17.7291 84.1089 21.3013 83.7414 24.472" stroke="black" stroke-width="3" stroke-miterlimit="1.5" stroke-linecap="round" stroke-linejoin="round"/>
<path fill-rule="evenodd" clip-rule="evenodd" d="M38.6971 96.3963C38.5207 94.7813 38.1011 92.8762 36.3734 92.322C37.9369 91.687 38.7298 89.9722 38.9265 88.3692C38.9708 89.7321 39.3004 91.5553 40.7212 92.1035C39.1308 92.7468 39.0639 94.9071 38.6971 96.3963Z" fill="#A9A5FD" stroke="black" stroke-width="3" stroke-miterlimit="1.5" stroke-linecap="round" stroke-linejoin="round"/>
<defs>
<filter id="filter0_d_1_240" x="14.1174" y="32.9004" width="95.5884" height="84.9754" filterUnits="userSpaceOnUse" color-interpolation-filters="sRGB">
<feFlood flood-opacity="0" result="BackgroundImageFix"/>
<feColorMatrix in="SourceAlpha" type="matrix" values="0 0 0 0 0 0 0 0 0 0 0 0 0 0 0 0 0 0 127 0" result="hardAlpha"/>
<feOffset dx="4" dy="4"/>
<feComposite in2="hardAlpha" operator="out"/>
<feColorMatrix type="matrix" values="0 0 0 0 0 0 0 0 0 0 0 0 0 0 0 0 0 0 1 0"/>
<feBlend mode="normal" in2="BackgroundImageFix" result="effect1_dropShadow_1_240"/>
<feBlend mode="normal" in="SourceGraphic" in2="effect1_dropShadow_1_240" result="shape"/>
</filter>
</defs>
</svg>
