<svg width="25" height="24" viewBox="0 0 25 24" fill="none" xmlns="http://www.w3.org/2000/svg">
<path d="M21.2644 15.15C21.9768 13.1104 21.9768 10.8896 21.2644 8.85003L21.2363 8.77503C20.5708 6.92135 19.3491 5.31839 17.7382 4.18519C16.1273 3.052 14.2058 2.44385 12.2363 2.44385C10.2668 2.44385 8.34527 3.052 6.7344 4.18519C5.12352 5.31839 3.90184 6.92135 3.2363 8.77503L3.20818 8.85003C2.49581 10.8896 2.49581 13.1104 3.20818 15.15L3.2363 15.225C3.90087 17.0791 5.12172 18.6827 6.732 19.8167C8.34229 20.9507 10.2635 21.5599 12.233 21.5609C14.2025 21.5619 16.1243 20.9548 17.7358 19.8224C19.3473 18.6901 20.5698 17.0877 21.2363 15.2344L21.2644 15.15ZM9.58318 15.5625H14.8894C14.3551 17.2782 13.4457 18.8157 12.2363 19.9969C11.0269 18.8157 10.1176 17.2782 9.58318 15.5625ZM9.30193 14.4375C8.96433 12.8301 8.96433 11.17 9.30193 9.56253H15.1707C15.5083 11.17 15.5083 12.8301 15.1707 14.4375H9.30193ZM3.7988 12C3.79685 11.1744 3.91689 10.353 4.15505 9.56253H8.1488C7.84873 11.1737 7.84873 12.8264 8.1488 14.4375H4.15505C3.91689 13.647 3.79685 12.8256 3.7988 12ZM14.8894 8.43753H9.58318C10.1176 6.72191 11.0269 5.18441 12.2363 4.00316C13.4457 5.18441 14.3551 6.72191 14.8894 8.43753ZM16.3332 9.56253H20.3176C20.7928 11.1528 20.7928 12.8473 20.3176 14.4375H16.3332C16.6207 12.8252 16.6207 11.1748 16.3332 9.56253ZM19.8863 8.43753H16.0707C15.59 6.65904 14.6935 5.02026 13.4551 3.65628C14.8391 3.85845 16.1513 4.40116 17.2738 5.23567C18.3963 6.07019 19.294 7.1704 19.8863 8.43753ZM11.0176 3.65628C9.77913 5.02026 8.88262 6.65904 8.40193 8.43753H4.5863C5.17861 7.1704 6.07631 6.07019 7.19882 5.23567C8.32133 4.40116 9.63351 3.85845 11.0176 3.65628ZM4.5863 15.5625H8.40193C8.88458 17.343 9.78076 18.9844 11.0176 20.3532C9.63367 20.1468 8.32228 19.6015 7.2002 18.7656C6.07811 17.9298 5.18015 16.8294 4.5863 15.5625ZM13.4551 20.3532C14.6918 18.9844 15.588 17.343 16.0707 15.5625H19.8863C19.2924 16.8294 18.3945 17.9298 17.2724 18.7656C16.1503 19.6015 14.8389 20.1468 13.4551 20.3532Z" fill="black"/>
</svg>
