<svg width="150" height="140" viewBox="0 0 150 140" fill="none" xmlns="http://www.w3.org/2000/svg">
<circle cx="34" cy="62.5" r="32.5" fill="#C0FFE0" stroke="black" stroke-width="2"/>
<g filter="url(#filter0_d_1_262)">
<path fill-rule="evenodd" clip-rule="evenodd" d="M46.847 130.746C47.3359 127.034 51.0914 120.821 47.9964 118.717C34.9673 109.863 20.1769 98.1726 20.8745 80.6647C21.1561 73.5684 23.222 64.7906 28.2473 59.5016C31.6482 55.924 37.9804 55.2533 41.2688 59.5579C44.7465 64.1083 41.8511 71.4299 41.5145 76.5179C41.2623 80.3156 42.3682 83.6127 46.573 84.1516C47.8479 84.3155 49.1574 84.2695 50.4323 84.121C52.1923 83.9149 53.8742 83.4052 55.3923 82.481C60.4457 79.4026 63.1734 71.1376 63.3219 65.5248C63.4153 61.9548 62.134 58.2876 58.4642 57.1779C52.7618 55.455 47.0684 62.5479 41.6578 59.3223C40.7631 58.7885 39.9465 58.1077 39.3308 57.2616C35.126 51.4824 40.0463 45.3884 44.7657 41.9798C49.2943 38.7107 55.19 35.7623 60.8719 35.5767C73.5631 35.1607 81.101 48.0354 82.788 59.101C83.7019 48.3349 80.0591 37.5389 79.2783 26.8573C79.0159 23.2618 78.5922 18.8407 79.6111 15.1223C81.4159 8.53158 89.6616 5.45572 95.1631 9.7898C99.4908 13.1984 101.328 19.9432 101.513 25.186C122.398 24.7508 122.824 43.0779 122.88 43.0779C123.189 43.0792 138.611 46.9345 136.91 64.1441C133.805 95.554 108.785 118.736 94.7266 119.711C94.6344 119.717 92.8808 123.84 92.3036 125.623C90.8124 130.233 91.7621 127.444 90.9109 132.222" fill="white"/>
<path d="M46.847 130.746C47.3359 127.034 51.0914 120.821 47.9964 118.717C34.9673 109.863 20.1769 98.1726 20.8745 80.6647C21.1561 73.5684 23.222 64.7906 28.2473 59.5016C31.6482 55.924 37.9804 55.2533 41.2688 59.5579C44.7465 64.1083 41.8511 71.4299 41.5145 76.5179C41.2623 80.3156 42.3683 83.6127 46.573 84.1516C47.8479 84.3155 49.1574 84.2695 50.4323 84.121C52.1923 83.9149 53.8742 83.4052 55.3923 82.481C60.4457 79.4026 63.1734 71.1376 63.3219 65.5248C63.4153 61.9548 62.134 58.2876 58.4642 57.1779C52.7618 55.455 47.0684 62.5479 41.6578 59.3223C40.7631 58.7885 39.9465 58.1077 39.3308 57.2616C35.126 51.4824 40.0463 45.3884 44.7657 41.9798C49.2943 38.7107 55.19 35.7623 60.8719 35.5767C73.5631 35.1607 81.101 48.0354 82.788 59.101C83.7019 48.3349 80.0591 37.5389 79.2783 26.8573C79.0159 23.2618 78.5922 18.8407 79.6111 15.1223C81.4159 8.53158 89.6616 5.45572 95.1631 9.7898C99.4908 13.1984 101.328 19.9432 101.513 25.186C122.398 24.7508 122.824 43.0779 122.88 43.0779C123.189 43.0792 138.611 46.9345 136.91 64.1441C133.805 95.554 108.785 118.736 94.7266 119.711C94.6344 119.717 92.8808 123.84 92.3036 125.623C90.8124 130.233 91.7621 127.444 90.9109 132.222" stroke="black" stroke-width="4" stroke-miterlimit="1.5" stroke-linecap="round" stroke-linejoin="round"/>
</g>
<path d="M101.47 24.9831C102.604 32.5269 103.357 41.8239 103.364 50.6953C103.372 59.9262 102.571 68.6964 100.549 74.5512" stroke="black" stroke-width="4" stroke-miterlimit="1.5" stroke-linecap="round" stroke-linejoin="round"/>
<path d="M122.874 43.2548C122.898 49.0974 122.257 54.4042 121.256 59.1025C119.661 66.5939 117.154 72.5383 114.975 76.6416" stroke="black" stroke-width="4" stroke-miterlimit="1.5" stroke-linecap="round" stroke-linejoin="round"/>
<defs>
<filter id="filter0_d_1_262" x="18.8506" y="5.76978" width="124.191" height="132.453" filterUnits="userSpaceOnUse" color-interpolation-filters="sRGB">
<feFlood flood-opacity="0" result="BackgroundImageFix"/>
<feColorMatrix in="SourceAlpha" type="matrix" values="0 0 0 0 0 0 0 0 0 0 0 0 0 0 0 0 0 0 127 0" result="hardAlpha"/>
<feOffset dx="4" dy="4"/>
<feComposite in2="hardAlpha" operator="out"/>
<feColorMatrix type="matrix" values="0 0 0 0 0 0 0 0 0 0 0 0 0 0 0 0 0 0 1 0"/>
<feBlend mode="normal" in2="BackgroundImageFix" result="effect1_dropShadow_1_262"/>
<feBlend mode="normal" in="SourceGraphic" in2="effect1_dropShadow_1_262" result="shape"/>
</filter>
</defs>
</svg>
