<svg width="100" height="84" viewBox="0 0 100 84" fill="none" xmlns="http://www.w3.org/2000/svg">
<g filter="url(#filter0_d_1_213)">
<path fill-rule="evenodd" clip-rule="evenodd" d="M49.378 77.9456C54.6584 71.7851 52.0331 61.8707 45.9334 58.8211C34.2602 52.9843 20.1873 52.4795 8.65034 46.4075C6.32728 45.185 3.55603 43.183 2.61566 40.6302C1.43086 37.4146 3.185 31.1506 7.01568 30.8311C7.01568 30.8158 6.10357 29.6382 5.91138 28.4342C5.67534 26.7204 5.81327 24.8912 6.513 23.3014C7.93636 20.066 14.8284 16.3687 17.9812 19.5214C17.99 19.5302 18.0533 18.3588 18.0604 18.2863C18.1459 17.4336 18.4377 16.5804 18.7694 15.7951C19.7714 13.4213 21.3356 11.2123 23.3652 9.60993C27.5577 6.30037 36.8491 5.00741 39.7734 10.8555C39.7734 10.8555 40.8411 8.2144 41.7874 7.24872C43.6531 5.34491 46.1384 3.85363 48.6598 2.99627C55.5149 0.665657 63.44 3.86998 64.4018 11.5653C64.4018 11.5653 65.4952 10.9528 65.5924 10.8995C66.3685 10.4744 67.1634 10.0665 67.9763 9.7181C70.2964 8.72364 73.1599 7.98869 75.6435 8.77311C82.2597 10.8626 85.9173 18.161 82.4945 24.3223C82.4945 24.3223 84.2365 24.5994 85.0783 24.8534C86.7348 25.3536 88.1045 26.2843 89.2662 27.5597C92.2731 30.8596 92.8999 36.2939 89.0943 39.2211C89.0943 39.2211 89.831 39.4975 90.7135 40.2919C91.8094 41.2784 92.7284 42.519 93.2617 43.9016C94.8749 48.0841 92.7196 50.3136 90.137 52.8962C90.0775 52.866 90.5915 53.2924 90.6837 53.3742C91.1214 53.7611 91.5285 54.2328 91.8211 54.7392C92.6508 56.1748 92.4794 58.0694 92.0488 59.608C90.8405 63.9225 86.6111 67.1231 82.1293 65.6293C81.9299 66.38 80.8934 68.0031 79.6428 68.8126C76.6724 70.7345 71.8267 70.7227 69.0257 68.585C67.5378 67.4496 66.7156 65.75 65.2943 64.5656C65.7517 64.9821 65.5321 67.7322 65.4604 68.1708C64.9644 71.2024 62.742 75.6699 60.182 77.5896L49.378 77.9456Z" fill="#FF9898"/>
<path fill-rule="evenodd" clip-rule="evenodd" d="M49.378 77.9456C54.6584 71.7851 52.0331 61.8707 45.9334 58.8211C34.2602 52.9843 20.1873 52.4795 8.65034 46.4075C6.32728 45.185 3.55603 43.183 2.61566 40.6302C1.43086 37.4146 3.185 31.1506 7.01568 30.8311C7.01568 30.8158 6.10357 29.6382 5.91138 28.4342C5.67534 26.7204 5.81327 24.8912 6.513 23.3014C7.93636 20.066 14.8284 16.3687 17.9812 19.5214C17.99 19.5302 18.0533 18.3588 18.0604 18.2863C18.1459 17.4336 18.4377 16.5804 18.7694 15.7951C19.7714 13.4213 21.3356 11.2123 23.3652 9.60993C27.5577 6.30037 36.8491 5.00741 39.7734 10.8555C39.7734 10.8555 40.8411 8.2144 41.7874 7.24872C43.6531 5.34491 46.1384 3.85363 48.6598 2.99627C55.5149 0.665657 63.44 3.86998 64.4018 11.5653C64.4018 11.5653 65.4952 10.9528 65.5924 10.8995C66.3685 10.4744 67.1634 10.0665 67.9763 9.7181C70.2964 8.72364 73.1599 7.98869 75.6435 8.77311C82.2597 10.8626 85.9173 18.161 82.4945 24.3223C82.4945 24.3223 84.2365 24.5994 85.0783 24.8534C86.7348 25.3536 88.1045 26.2843 89.2662 27.5597C92.2731 30.8596 92.8999 36.2939 89.0943 39.2211C89.0943 39.2211 89.831 39.4975 90.7135 40.2919C91.8094 41.2784 92.7284 42.519 93.2617 43.9016C94.8749 48.0841 92.7196 50.3136 90.137 52.8962C90.0775 52.866 90.5915 53.2924 90.6837 53.3742C91.1214 53.7611 91.5285 54.2328 91.8211 54.7392C92.6508 56.1748 92.4794 58.0694 92.0488 59.608C90.8405 63.9225 86.6111 67.1231 82.1293 65.6293C81.9299 66.38 80.8934 68.0031 79.6428 68.8126C76.6724 70.7345 71.8267 70.7227 69.0257 68.585C67.5378 67.4496 66.7156 65.75 65.2943 64.5656C65.7517 64.9821 65.5321 67.7322 65.4604 68.1708C64.9644 71.2024 62.742 75.6699 60.182 77.5896L49.378 77.9456Z" stroke="black" stroke-width="4" stroke-miterlimit="1.5" stroke-linecap="round" stroke-linejoin="round"/>
</g>
<defs>
<filter id="filter0_d_1_213" x="0.249847" y="0.25029" width="99.5683" height="83.6953" filterUnits="userSpaceOnUse" color-interpolation-filters="sRGB">
<feFlood flood-opacity="0" result="BackgroundImageFix"/>
<feColorMatrix in="SourceAlpha" type="matrix" values="0 0 0 0 0 0 0 0 0 0 0 0 0 0 0 0 0 0 127 0" result="hardAlpha"/>
<feOffset dx="4" dy="4"/>
<feComposite in2="hardAlpha" operator="out"/>
<feColorMatrix type="matrix" values="0 0 0 0 0 0 0 0 0 0 0 0 0 0 0 0 0 0 1 0"/>
<feBlend mode="normal" in2="BackgroundImageFix" result="effect1_dropShadow_1_213"/>
<feBlend mode="normal" in="SourceGraphic" in2="effect1_dropShadow_1_213" result="shape"/>
</filter>
</defs>
</svg>
