<svg width="120" height="120" viewBox="0 0 120 120" fill="none" xmlns="http://www.w3.org/2000/svg">
<g filter="url(#filter0_d_1_220)">
<path fill-rule="evenodd" clip-rule="evenodd" d="M89.1239 22.211C73.5227 9.93262 51.0149 11.3712 35.9872 20.5459C10.0878 36.3588 6.72803 75.8322 25.2275 93.6031C45.6258 113.197 73.4673 108.474 87.3419 95.9389C105.324 79.6916 113.011 52.9406 97.5318 33.0148" fill="#FFEEA7"/>
<path d="M89.1239 22.211C73.5227 9.93262 51.0149 11.3712 35.9872 20.5459C10.0878 36.3588 6.72803 75.8322 25.2275 93.6031C45.6258 113.197 73.4673 108.474 87.3419 95.9389C105.324 79.6916 113.011 52.9406 97.5318 33.0148" stroke="black" stroke-width="4" stroke-miterlimit="1.5" stroke-linecap="round" stroke-linejoin="round"/>
</g>
<path d="M47.8092 47.8333C47.4047 50.3258 47.2375 52.8923 47.1732 55.4175" stroke="black" stroke-width="4" stroke-miterlimit="1.5" stroke-linecap="round" stroke-linejoin="round"/>
<path d="M70.1252 47.1328C70.1427 50.1432 70.3298 53.2857 70.0293 56.2925" stroke="black" stroke-width="4" stroke-miterlimit="1.5" stroke-linecap="round" stroke-linejoin="round"/>
<path d="M35.9609 68.9635C36.708 71.7658 38.3767 74.2181 40.4184 76.2352C50.4312 86.1286 69.1287 83.0374 76.2654 71.0962" stroke="black" stroke-width="4" stroke-miterlimit="1.5" stroke-linecap="round" stroke-linejoin="round"/>
<defs>
<filter id="filter0_d_1_220" x="11.5372" y="11.3334" width="100.324" height="101.503" filterUnits="userSpaceOnUse" color-interpolation-filters="sRGB">
<feFlood flood-opacity="0" result="BackgroundImageFix"/>
<feColorMatrix in="SourceAlpha" type="matrix" values="0 0 0 0 0 0 0 0 0 0 0 0 0 0 0 0 0 0 127 0" result="hardAlpha"/>
<feOffset dx="4" dy="4"/>
<feComposite in2="hardAlpha" operator="out"/>
<feColorMatrix type="matrix" values="0 0 0 0 0 0 0 0 0 0 0 0 0 0 0 0 0 0 1 0"/>
<feBlend mode="normal" in2="BackgroundImageFix" result="effect1_dropShadow_1_220"/>
<feBlend mode="normal" in="SourceGraphic" in2="effect1_dropShadow_1_220" result="shape"/>
</filter>
</defs>
</svg>
